<?xml version="1.0" standalone="no"?><!DOCTYPE svg PUBLIC "-//W3C//DTD SVG 1.1//EN" "http://www.w3.org/Graphics/SVG/1.1/DTD/svg11.dtd"><svg t="1504180517791" class="icon" style="" viewBox="0 0 1024 1024" version="1.1" xmlns="http://www.w3.org/2000/svg" p-id="738" xmlns:xlink="http://www.w3.org/1999/xlink" width="200" height="200"><defs><style type="text/css"></style></defs><path d="M353.088 361.408c-182.912 0-331.264 148.288-331.264 331.264s148.288 331.264 331.264 331.264c182.912 0 331.264-148.288 331.264-331.264 0-213.312-148.288-331.264-331.264-331.264zM176.256 690.56c-25.856 0-46.848-20.992-46.848-46.848s20.992-46.848 46.848-46.848c25.856 0 46.848 20.992 46.848 46.848s-20.928 46.848-46.848 46.848z m65.088-145.728c0-25.856 20.992-46.848 46.848-46.848s46.848 20.992 46.848 46.848-20.992 46.848-46.848 46.848-46.848-20.992-46.848-46.848z m79.616 191.552c-25.856 0-46.848-20.992-46.848-46.848s20.992-46.848 46.848-46.848 46.848 20.992 46.848 46.848c0 25.92-20.992 46.848-46.848 46.848zM918.72 238.912c6.144-22.656 11.648-46.4 11.648-76.544v-10.112C930.24 111.552 915.776 73.6 889.6 45.44 862.336 16.128 824.96 0 784.192 0s-78.08 16.128-105.216 45.504c-25.984 28.16-40.32 66.048-40.448 106.816V163.456c0.064 29.568 5.44 53.056 11.52 75.456H918.72z" fill="#1296db" p-id="739"></path><path d="M941.632 505.152c-15.936-38.656-29.888-73.408-37.184-106.432H664.512c-2.496 11.392-5.632 22.912-9.6 34.88 23.744 19.712 195.776 283.712-26.24 534.592l-0.32 0.32c9.152 14.464 19.648 29.184 31.808 44.16 5.824 7.104 14.592 11.328 23.872 11.328h201.856a30.772 30.772 0 0 0 23.68-11.136l0.32-0.384c0.064-0.128 0.128-0.192 0.256-0.32 75.008-92.864 88.384-178.176 91.52-249.472 4.544-100.672-29.76-184-60.032-257.536zM899.136 353.664c-0.96-27.328 2.496-49.216 7.616-69.696H662.08c5.184 20.48 8.576 42.368 7.616 69.696h229.44z" fill="#1296db" p-id="740"></path></svg>