<?xml version="1.0" standalone="no"?><!DOCTYPE svg PUBLIC "-//W3C//DTD SVG 1.1//EN" "http://www.w3.org/Graphics/SVG/1.1/DTD/svg11.dtd"><svg t="1504180580537" class="icon" style="" viewBox="0 0 1024 1024" version="1.1" xmlns="http://www.w3.org/2000/svg" p-id="900" xmlns:xlink="http://www.w3.org/1999/xlink" width="200" height="200"><defs><style type="text/css"></style></defs><path d="M151.552 284.16l-28.672-4.608c-3.072 0.512-6.144 1.536-8.192 4.096-2.048 2.048-4.608 4.096-5.12 7.168l-17.92 185.856c-0.512 1.024-0.512 1.536-0.512 2.56 0 1.536 0.512 2.56 0.512 4.096 1.024 1.024 1.536 2.048 2.56 3.072 0.512 0.512 1.536 1.536 2.56 1.536l41.984 2.048c0.512 0.512 0.512 0.512 1.024 0 1.024-0.512 1.024-1.536 1.536-2.048 1.024-0.512 2.048-1.024 3.072-2.048 1.536-1.536 3.072-4.608 3.584-7.168L163.84 293.376c0-2.048 0-5.12-1.536-6.144-4.096-2.56-7.168-3.072-10.752-3.072zM206.848 155.648c-22.528 14.848-32.256 44.032-22.016 69.12 8.704 22.016 29.696 34.816 53.76 35.328 18.944 0.512 37.888-10.24 48.64-25.6 14.848-22.528 11.776-53.248-7.168-71.68-19.456-18.432-51.2-21.504-73.216-7.168z" fill="#1296db" p-id="901"></path><path d="M785.92 41.984c-41.472-46.592-90.624-29.696-109.056 0-18.432 29.696 2.56 93.696-41.472 126.976s-90.112 37.376-90.112 37.376c-3.072 1.536-6.144 2.56-9.216 3.072-9.728 3.072-12.288 3.072-20.48 9.216-6.144 5.12-11.264 10.24-15.872 16.896L189.44 286.72c-1.536 0.512-2.56 0-4.096 0.512-1.536 0.512-3.072 1.024-4.608 2.048-1.024 1.024-1.024 2.048-1.536 3.584-0.512 1.536-0.512 3.584-0.512 5.12L153.6 530.432c-0.512 3.072-1.024 6.144-0.512 9.728 0.512 4.608 0.512 9.728 0.512 14.848l4.608 13.312-97.792 313.344s-22.016 63.488-15.872 83.456c13.312 39.936 80.896 39.936 140.8 39.936h594.432c72.192 0 137.728-27.136 189.44-70.144h2.048v-1.536c8.192-7.168 11.776-17.92 9.728-28.672-24.576-119.808-168.448-833.024-195.072-862.72zM333.312 740.864S229.376 844.8 176.128 866.304c-53.248 20.992-68.608 1.536-68.608 1.536l136.704-283.648 100.352-2.048-11.264 158.72z m47.616-22.528l32.256-169.984c0.512-1.024 0-3.072 0-4.096v-3.072c-1.024-1.024-2.048-2.56-3.584-3.584-1.024-0.512-2.048-1.024-3.072-1.024l-150.016-42.496c5.12-16.896 10.24-33.28 14.848-50.688 3.584-13.824 6.656-27.648 10.24-41.472 6.656-26.112 12.8-51.712 17.92-78.336l202.24-61.44-120.832 456.192z" fill="#1296db" p-id="902"></path></svg>