<?xml version="1.0" standalone="no"?><!DOCTYPE svg PUBLIC "-//W3C//DTD SVG 1.1//EN" "http://www.w3.org/Graphics/SVG/1.1/DTD/svg11.dtd"><svg t="1504180591929" class="icon" style="" viewBox="0 0 1026 1024" version="1.1" xmlns="http://www.w3.org/2000/svg" p-id="1062" xmlns:xlink="http://www.w3.org/1999/xlink" width="200.390625" height="200"><defs><style type="text/css"></style></defs><path d="M1011.2 313.6L928 256c-12.8-6.4-32-25.6-32-38.4-6.4-12.8 12.8-19.2 12.8-32 0-6.4-6.4-6.4-6.4-6.4s-19.2 0-25.6-6.4l-12.8-25.6h-6.4c6.4-6.4 6.4-12.8 0-19.2-6.4-6.4-12.8-6.4-19.2 0-6.4 6.4-6.4 6.4 0 12.8-6.4 0-12.8 0-19.2 6.4L550.4 428.8l-38.4 32c-6.4 6.4-6.4 19.2 0 25.6 6.4 6.4 19.2 6.4 25.6 0l12.8-12.8 25.6 25.6c19.2 12.8 38.4 12.8 51.2 6.4l102.4-102.4c0 6.4 6.4 6.4 6.4 6.4 19.2 19.2 51.2 19.2 64 0l25.6-25.6c6.4-6.4 6.4-12.8 12.8-19.2l64 64c12.8 12.8 32 12.8 44.8 0L1024 352c6.4-12.8 0-32-12.8-38.4z m-198.4 57.6l-25.6 25.6c-12.8 12.8-25.6 12.8-38.4 0 0 0-6.4-6.4-6.4-12.8l25.6-19.2c6.4 6.4 6.4 12.8 12.8 12.8s6.4 6.4 6.4 6.4v-12.8c0-6.4 0-12.8-6.4-19.2v-6.4c12.8-6.4 25.6-6.4 32 0 6.4 12.8 6.4 19.2 0 25.6z m44.8-224h-6.4v-6.4h6.4v6.4zM896 448l-6.4-6.4-44.8-44.8v6.4l-25.6 25.6-6.4 6.4c6.4 25.6 12.8 44.8 12.8 70.4h-32c0-19.2-6.4-38.4-6.4-57.6h-6.4c-12.8 0-32-6.4-38.4-12.8l-25.6 25.6c-12.8 6.4-12.8 25.6-12.8 38.4h-32v-12.8l-32 32c-6.4 0-12.8 6.4-12.8 6.4-6.4 6.4-19.2 6.4-25.6 6.4h-12.8c-6.4 38.4-44.8 76.8-89.6 83.2v-44.8c19.2-6.4 38.4-19.2 44.8-44.8h38.4c-6.4 0-12.8-6.4-12.8-6.4l-19.2-19.2s-6.4 0-6.4 6.4c0 0-6.4 0-6.4 6.4h-12.8c-6.4 0-19.2 0-25.6-6.4 0-6.4-6.4-12.8-6.4-12.8v-6.4-6.4-12.8c0-6.4 0-6.4 6.4-12.8 0 0 0-6.4 6.4-6.4v-38.4c12.8 0 19.2 6.4 25.6 6.4l57.6-57.6c-25.6-12.8-57.6-25.6-89.6-25.6v-38.4c38.4 0 76.8 19.2 108.8 38.4l57.6-57.6c-44.8-38.4-102.4-57.6-166.4-64v-32c70.4 0 140.8 32 192 70.4l57.6-57.6c-70.4-57.6-153.6-89.6-249.6-96V25.6h-25.6v76.8c-211.2 6.4-390.4 179.2-396.8 396.8H0v25.6h76.8c6.4 217.6 179.2 390.4 396.8 396.8v76.8h25.6v-76.8c217.6-6.4 390.4-179.2 396.8-396.8h76.8v-25.6H896V448z m-422.4 390.4c-166.4-6.4-307.2-140.8-313.6-313.6H192c6.4 153.6 128 275.2 281.6 281.6v32z m0-108.8c-108.8-6.4-198.4-96-204.8-204.8h32c6.4 89.6 76.8 160 166.4 166.4v38.4z m0-115.2c-44.8-6.4-76.8-44.8-83.2-89.6h44.8c6.4 19.2 19.2 38.4 44.8 44.8v44.8z m0-160c-19.2 6.4-32 25.6-38.4 44.8h-44.8c6.4-44.8 44.8-83.2 89.6-89.6v44.8z m0-121.6C384 339.2 313.6 409.6 307.2 499.2h-32c6.4-108.8 96-198.4 204.8-204.8v38.4z m0-115.2C320 224 198.4 345.6 192 499.2h-32C166.4 326.4 307.2 192 473.6 185.6v32z m25.6 473.6c89.6-6.4 160-76.8 166.4-166.4h38.4c-6.4 108.8-96 198.4-204.8 204.8v-38.4z m0 147.2v-32c153.6-6.4 275.2-128 281.6-281.6h32c0 172.8-140.8 307.2-313.6 313.6z" p-id="1063" fill="#1296db"></path></svg>