<?xml version="1.0" standalone="no"?><!DOCTYPE svg PUBLIC "-//W3C//DTD SVG 1.1//EN" "http://www.w3.org/Graphics/SVG/1.1/DTD/svg11.dtd"><svg t="1504180622413" class="icon" style="" viewBox="0 0 1025 1024" version="1.1" xmlns="http://www.w3.org/2000/svg" p-id="1223" xmlns:xlink="http://www.w3.org/1999/xlink" width="200.1953125" height="200"><defs><style type="text/css"></style></defs><path d="M364.366 20.672l2.496-10.176-2.496 10.176zM49.038 260.608a1.227 1.227 0 1 0 157.056 0 1.227 1.227 0 1 0-157.056 0zM169.55 358.72l0.128 0.384c-17.152 0.256-33.856 11.392-44.032 31.552-16.832 33.408-11.904 73.472-2.304 108.544 4.224 15.232 9.344 30.272 14.4 45.248 14.016 41.344 23.936 89.28 62.4 115.648 23.04 15.744 50.88 20.736 77.888 23.936 20.608 2.432 47.232 2.24 65.728 12.736 19.904 11.264 19.328 36.864 22.016 56.64 3.264 23.68 6.656 47.36 9.856 71.04 1.984 14.72 4.352 29.824 6.144 49.024 0 0.256-0.128 0.448-0.128 0.64 0 11.968 9.664 21.632 21.632 21.632 11.84 0 21.376-9.536 21.568-21.312h0.384c0.064-6.272 6.208-90.24 7.744-120.384 1.664-32.512 5.568-69.76-9.92-99.84a69.087 69.087 0 0 0-8.384-12.672c-22.976-27.52-63.104-31.616-95.744-43.968-9.792-3.712-19.392-8.576-27.392-15.232-29.824-24.704-35.712-68.224-47.296-108.544-5.44-18.944-8.704-33.984-13.504-48.512l14.976 2.304c10.944 0.256 24.128 1.792 35.072 2.368 14.464 0.704 27.072 2.24 39.488-7.68 9.728-7.808 83.712-88.384 83.712-96.192 0-9.536-7.744-17.28-17.28-17.28-5.632 0-74.56 65.92-82.304 70.912-7.616 4.864-17.728 1.216-25.152-1.088-9.6-3.008-19.264-5.888-28.992-8.448-21.76-5.696-58.752-14.592-80.704-11.456zM542.158 803.136a10.087 10.087 0 0 0 4.672 1.152 9.76 9.76 0 0 0 3.52-0.64l419.264-155.712c5.12-1.92 7.872-7.552 6.08-12.736-0.64-0.704-176.512-524.48-633.856-634.88-3.456-0.896-7.104 0.192-9.6 2.752-2.496 2.496-3.456 6.208-2.56 9.664L536.974 796.8c0.768 2.688 2.624 5.056 5.184 6.336z m-32.32-293.376c-3.84-17.792 7.488-35.328 25.28-39.168 9.088-1.92 221.824-45.504 354.304 123.2 11.2 14.272 8.768 35.008-5.568 46.272-6.016 4.672-13.184 7.04-20.352 7.04-9.728 0-19.456-4.288-25.92-12.608-107.264-136.704-281.088-101.12-288.64-99.52-17.344 3.904-35.2-7.424-39.104-25.216z" fill="#1296db" p-id="1224"></path><path d="M1014.67 938.816c-5.824-6.72-11.776-13.376-18.496-18.816-41.536-33.344-108.032-34.624-152.384-0.96-8.384 6.4-14.656 13.696-19.84 19.712-5.12-6.016-11.456-13.312-19.712-19.584-44.736-33.984-110.976-32.576-152.576 0.896-6.4 5.12-12.032 11.456-17.664 17.984-0.832 0.96-1.664 1.984-2.624 3.072l-1.472-1.472c-11.456-11.392-27.2-27.008-50.048-35.84-29.376-11.328-63.168-10.816-92.736 1.344-19.904 8.256-32.768 21.12-43.072 31.488l-3.584 3.584-4.672-5.056c-11.2-11.712-23.68-21.12-36.992-28.032-50.752-26.24-110.4-13.248-155.968 33.6-1.92-1.792-4.032-3.904-6.08-6.016-9.792-9.728-23.168-23.168-43.52-30.592-34.944-12.608-72.512-10.624-102.976 5.504-11.072 5.824-20.032 13.312-28.032 19.968-5.696 4.736-15.296 12.096-17.984 12.288-20.544-3.2-40.576 11.136-43.776 32.064-3.264 20.992 11.136 40.64 32.064 43.84 36.864 5.952 62.208-15.296 78.848-29.248 5.248-4.352 10.688-8.896 14.592-10.944 11.392-6.08 26.368-6.528 41.088-1.216 4.16 1.472 9.344 6.656 15.232 12.544 9.472 9.472 21.312 21.376 39.232 28.672 38.912 15.936 66.56-13.12 75.648-22.656 10.368-10.88 37.504-34.368 66.368-19.648 5.888 3.072 11.392 7.232 20.416 16.896 18.88 21.184 37.696 31.808 56.32 31.808 10.56 0 21.056-3.392 31.424-10.176 11.136-7.36 19.456-15.616 26.688-22.912 7.68-7.68 12.672-12.48 18.048-14.72 11.584-4.736 24.64-4.864 35.84-0.704 7.232 2.816 14.336 9.472 25.216 20.288 10.752 10.752 35.584 35.776 71.936 24.384 21.248-6.72 33.792-21.376 42.944-32 2.496-2.944 4.864-6.016 7.616-8.256 14.592-11.712 40.512-12.864 57.984 0.576 1.92 1.408 5.248 5.312 8.128 8.768 7.68 9.088 18.24 21.504 34.56 28.928 7.872 3.712 14.912 4.352 19.392 4.8l4.736 0.32 16.384-2.24 5.824-2.688c16.832-7.616 27.392-20.032 35.072-29.184 2.88-3.392 6.144-7.232 8.192-8.832 17.28-13.248 43.328-12.16 57.792-0.576 3.072 2.496 5.568 5.824 8.32 9.024l0.512 0.576c13.888 16.192 37.824 17.664 53.888 3.968 16-13.824 17.664-38.4 3.904-54.528z" fill="#1296db" p-id="1225"></path></svg>