<?xml version="1.0" standalone="no"?><!DOCTYPE svg PUBLIC "-//W3C//DTD SVG 1.1//EN" "http://www.w3.org/Graphics/SVG/1.1/DTD/svg11.dtd"><svg t="1504180642316" class="icon" style="" viewBox="0 0 1026 1024" version="1.1" xmlns="http://www.w3.org/2000/svg" p-id="1385" xmlns:xlink="http://www.w3.org/1999/xlink" width="200.390625" height="200"><defs><style type="text/css"></style></defs><path d="M755.4592 819.2c-12.8 0-19.2-6.4-32-12.8-12.8-12.8-25.6-25.6-51.2-25.6s-38.4 12.8-51.2 25.6c-6.4 6.4-12.8 12.8-32 12.8-12.8 0-19.2-6.4-32-12.8-12.8-12.8-25.6-25.6-51.2-25.6s-38.4 12.8-51.2 25.6c-6.4 6.4-12.8 12.8-32 12.8-12.8 0-19.2-6.4-32-12.8-12.8-12.8-25.6-25.6-51.2-25.6s-38.4 12.8-51.2 25.6c-6.4 6.4-12.8 12.8-32 12.8-12.8 0-19.2-6.4-32-12.8-12.8-12.8-25.6-25.6-51.2-25.6v32c12.8 0 19.2 6.4 32 12.8 12.8 12.8 25.6 25.6 51.2 25.6s38.4-12.8 51.2-25.6c6.4-6.4 12.8-12.8 32-12.8s19.2 6.4 32 12.8c12.8 12.8 25.6 25.6 51.2 25.6s38.4-12.8 51.2-25.6c6.4-6.4 12.8-12.8 32-12.8 12.8 0 19.2 6.4 32 12.8 12.8 12.8 25.6 25.6 51.2 25.6s38.4-12.8 51.2-25.6c6.4-6.4 12.8-12.8 32-12.8 12.8 0 19.2 6.4 32 12.8 12.8 12.8 25.6 25.6 51.2 25.6s38.4-12.8 51.2-25.6c6.4-6.4 12.8-12.8 32-12.8v-32c-25.6 0-38.4 12.8-51.2 25.6-12.8 6.4-19.2 12.8-32 12.8z m0-89.6c-12.8 0-19.2-6.4-32-12.8-12.8-12.8-25.6-25.6-51.2-25.6s-38.4 12.8-51.2 25.6c-6.4 6.4-12.8 12.8-32 12.8-12.8 0-19.2-6.4-32-12.8-12.8-12.8-25.6-25.6-51.2-25.6s-38.4 12.8-51.2 25.6c-6.4 6.4-12.8 12.8-32 12.8-12.8 0-19.2-6.4-32-12.8-6.4-12.8-19.2-25.6-44.8-25.6-25.6 0-38.4 12.8-51.2 25.6-6.4 6.4-12.8 12.8-32 12.8-12.8 0-19.2-6.4-32-12.8-12.8-12.8-25.6-25.6-51.2-25.6v32c12.8 0 19.2 6.4 32 12.8 6.4 19.2 19.2 32 51.2 32 25.6 0 38.4-12.8 51.2-25.6 6.4-6.4 12.8-12.8 32-12.8s19.2 6.4 32 12.8c6.4 12.8 19.2 25.6 44.8 25.6 25.6 0 38.4-12.8 51.2-25.6 6.4-6.4 12.8-12.8 32-12.8 12.8 0 19.2 6.4 32 12.8 6.4 12.8 25.6 25.6 51.2 25.6s38.4-12.8 51.2-25.6c6.4-6.4 12.8-12.8 32-12.8 12.8 0 19.2 6.4 32 12.8 12.8 12.8 25.6 25.6 51.2 25.6s38.4-12.8 51.2-25.6c6.4-6.4 12.8-12.8 32-12.8v-32c-25.6 0-38.4 12.8-51.2 25.6-12.8 6.4-19.2 6.4-32 6.4zM646.6592 640l134.4-172.8H224.2592L365.0592 640h281.6z m358.4-147.2L928.2592 448c-12.8-6.4-32-6.4-44.8 0L537.8592 256l64-38.4v6.4c0 6.4 6.4 6.4 12.8 6.4l12.8-6.4c6.4 0 6.4-6.4 6.4-12.8l-19.2-38.4c0-6.4-6.4-6.4-12.8-6.4l-12.8 12.8V198.4L512.2592 243.2 435.4592 192v-6.4c0-6.4 0-12.8-6.4-12.8h-12.8c-6.4 0-12.8 0-12.8 6.4l-12.8 25.6c0 6.4 0 12.8 6.4 12.8l12.8 6.4c6.4 0 12.8 0 12.8-6.4v-6.4l64 38.4-339.2 204.8c-12.8-12.8-32-12.8-51.2-6.4l-76.8 44.8c-19.2 12.8-25.6 38.4-12.8 64 12.8 19.2 38.4 25.6 57.6 12.8l76.8-44.8c19.2-12.8 25.6-32 19.2-51.2L512.2592 275.2l352 204.8c-6.4 19.2 0 44.8 19.2 51.2l76.8 38.4c19.2 12.8 51.2 6.4 64-19.2 6.4-19.2 0-44.8-19.2-57.6z" p-id="1386" fill="#1296db"></path></svg>