<?xml version="1.0" standalone="no"?><!DOCTYPE svg PUBLIC "-//W3C//DTD SVG 1.1//EN" "http://www.w3.org/Graphics/SVG/1.1/DTD/svg11.dtd"><svg t="1504180676833" class="icon" style="" viewBox="0 0 1024 1024" version="1.1" xmlns="http://www.w3.org/2000/svg" p-id="1707" xmlns:xlink="http://www.w3.org/1999/xlink" width="200" height="200"><defs><style type="text/css"></style></defs><path d="M568.064 480.832c-1.792 7.68-3.136 15.488-4.16 23.296l61.696 50.304c73.984 60.16 74.496 60.608 75.968 62.144 36.8 29.824 98.752 47.04 151.04 14.976 11.392-7.04 21.376-15.68 29.824-25.664a121.133 121.133 0 0 0 20.096-33.728c20.48-51.904 3.84-109.76-42.176-147.392-3.776-2.944-17.216-13.76-78.336-63.872l-56.384-46.016c-19.072 5.76-37.44 13.696-54.72 24.32-52.288 32.064-88.768 82.368-102.848 141.632zM989.12 411.84c-46.592-73.664-130.112-114.304-217.792-106.176-0.832 0.064-1.6 0.256-2.304 0.32l35.136 28.672c32.768 26.944 73.664 60.352 77.312 63.04 58.56 47.808 79.232 120.832 53.312 186.624-6.144 15.616-14.784 30.144-25.664 43.2-10.816 12.8-23.68 23.872-38.208 32.832-20.032 12.288-42.304 19.392-65.344 21.504-43.648 4.16-89.984-9.856-127.616-40.576-3.968-3.392-41.28-33.856-74.24-60.672l-41.152-33.472c2.368 37.056 14.016 73.088 34.56 105.472 46.528 73.664 129.984 114.304 217.856 106.176 35.776-3.328 69.504-14.592 100.352-33.472 107.968-66.368 141.12-206.976 73.792-313.472zM545.28 665.6c-6.72-12.032-13.824-23.936-18.688-37.056L486.4 589.056l25.152-24.768c-1.28-10.688-3.264-21.12-3.264-32.064 0-26.176 4.8-50.944 11.584-75.008L486.4 424.32l49.344-48.64 13.568 13.376c8.448-13.952 18.112-26.88 28.8-39.104l-8.128-8 49.28-48.576 9.92 9.856c13.696-9.472 28.352-17.536 43.584-24.576l-19.264-19.008 49.344-48.64 45.568 44.928c14.656-2.304 29.44-4.48 44.8-4.48 11.136 0 21.696 1.984 32.576 3.2l13.696-13.568c1.088 5.824 2.816 11.328 3.456 17.344 24.896 4.096 47.936 11.072 69.632 21.056-2.048-84.544-35.136-162.368-99.52-214.848-58.368-47.616-132.672-66.56-209.28-59.456-99.264 9.28-202.24 62.272-278.72 153.216-68.352 81.408-94.72 162.112-102.336 266.816-7.616 104.768-11.52 251.008-72.128 323.2C89.92 820.544 16.704 907.84 16.704 907.84 15.68 908.992 0 937.216 0 952.896c0 37.184 30.464 67.328 68.288 67.328 21.888 0 40.448-10.816 52.928-26.56 0.256-0.256 50.24-59.968 130.752-155.712 80.512-95.68 288-129.664 306.496-133.824 3.008-0.768 6.016-1.408 8.96-2.112-8.64-11.456-16.064-23.488-22.912-35.648l0.768-0.768z m-47.04-162.176L448.896 552l-46.08-45.376 49.344-48.576 46.08 45.376z m-132.992-33.728l-46.016-45.376 49.344-48.576 46.016 45.376-49.344 48.576z m83.648-82.368l-46.08-45.312 49.408-48.64 46.016 45.376-49.344 48.576z m83.52-82.368L486.4 259.648l49.28-48.576 46.08 45.312-49.344 48.576z m289.6-120.448l-38.72 38.208-46.08-45.376 46.912-46.272c15.296 15.616 28.224 33.344 37.888 53.44zM673.728 75.136c24.576 4.032 47.552 11.648 68.352 23.36l-42.432 41.856-46.08-45.376 20.16-19.84z m-54.4 53.568l46.016 45.312L616 222.656l-46.016-45.312 49.344-48.64zM569.28 79.36l12.544 12.352-49.344 48.64-35.008-34.432c23.232-11.776 47.296-20.736 71.808-26.56z m-135.424 67.456c6.784-5.44 13.696-10.752 20.8-15.68l43.52 42.944-49.28 48.576-46.08-45.376 31.04-30.464z m-64.064 65.408l44.928 44.16-49.408 48.64-33.792-33.28c10.688-20.416 23.296-40.32 38.272-59.52z m-59.2 106.304l20.48 20.16L296 373.248c3.2-18.24 8.064-36.48 14.592-54.72z m20.48 184.896l-19.968 19.648c-7.808-17.664-13.824-36.288-17.024-56.064l36.992 36.416z m-81.216 247.104l-14.976-12.224c19.008-40.576 30.336-84.416 37.76-128.192 14.464 15.808 29.952 30.848 45.952 43.904 15.744 12.864 33.152 24.896 51.008 35.84-41.664 15.104-82.816 34.176-119.744 60.672z m138.816-139.136c-7.744-4.736-15.68-9.152-22.72-14.912-10.112-8.256-18.24-17.92-26.176-27.712l28.864-28.416 46.08 45.44-26.048 25.6z m51.968 22.784l11.584-11.456 16.64 16.384c-9.6-1.28-19.2-2.56-28.224-4.928z" fill="#1296db" p-id="1708"></path></svg>